<?xml version="1.0" standalone="no"?><!-- Generator: Gravit.io --><svg xmlns="http://www.w3.org/2000/svg" xmlns:xlink="http://www.w3.org/1999/xlink" style="isolation:isolate" viewBox="0 0 2000 2000" width="2000" height="2000"><defs><clipPath id="_clipPath_EJmZLRnPLgTRI8hZcBs8cLmc3BgfQE1y"><rect width="2000" height="2000"/></clipPath></defs><g clip-path="url(#_clipPath_EJmZLRnPLgTRI8hZcBs8cLmc3BgfQE1y)"><path d=" M 1697.296 1925.454 L 1697.296 1925.454 L 1697.296 1925.454 Q 1697.296 1956.664 1681.547 1974.19 L 1681.547 1974.19 L 1681.547 1974.19 Q 1665.798 1991.716 1638.035 1991.716 L 1638.035 1991.716 L 1638.035 1991.716 Q 1620.887 1991.716 1607.588 1983.681 L 1607.588 1983.681 L 1607.588 1983.681 Q 1594.289 1975.645 1587.057 1960.623 L 1587.057 1960.623 L 1587.057 1960.623 Q 1579.824 1945.6 1579.824 1925.454 L 1579.824 1925.454 L 1579.824 1925.454 Q 1579.824 1894.244 1595.456 1876.835 L 1595.456 1876.835 L 1595.456 1876.835 Q 1611.087 1859.425 1638.851 1859.425 L 1638.851 1859.425 L 1638.851 1859.425 Q 1665.682 1859.425 1681.489 1877.242 L 1681.489 1877.242 L 1681.489 1877.242 Q 1697.296 1895.059 1697.296 1925.454 Z  M 1599.889 1925.454 L 1599.889 1925.454 L 1599.889 1925.454 Q 1599.889 1949.909 1609.687 1962.719 L 1609.687 1962.719 L 1609.687 1962.719 Q 1619.487 1975.529 1638.502 1975.529 L 1638.502 1975.529 L 1638.502 1975.529 Q 1657.517 1975.529 1667.373 1962.777 L 1667.373 1962.777 L 1667.373 1962.777 Q 1677.231 1950.025 1677.231 1925.454 L 1677.231 1925.454 L 1677.231 1925.454 Q 1677.231 1901.115 1667.373 1888.48 L 1667.373 1888.48 L 1667.373 1888.48 Q 1657.517 1875.845 1638.269 1875.845 L 1638.269 1875.845 L 1638.269 1875.845 Q 1619.254 1875.845 1609.571 1888.305 L 1609.571 1888.305 L 1609.571 1888.305 Q 1599.889 1900.766 1599.889 1925.454 Z " fill-rule="evenodd" fill="rgb(42,36,33)"/><path d=" M 1524.297 1991.716 L 1524.297 1991.716 L 1524.297 1991.716 Q 1496.533 1991.716 1481.31 1974.656 L 1481.31 1974.656 L 1481.31 1974.656 Q 1466.085 1957.595 1466.085 1926.385 L 1466.085 1926.385 L 1466.085 1926.385 Q 1466.085 1894.361 1481.543 1876.893 L 1481.543 1876.893 L 1481.543 1876.893 Q 1496.999 1859.425 1525.58 1859.425 L 1525.58 1859.425 L 1525.58 1859.425 Q 1534.796 1859.425 1544.011 1861.404 L 1544.011 1861.404 L 1544.011 1861.404 Q 1553.227 1863.384 1558.477 1866.063 L 1558.477 1866.063 L 1552.527 1882.483 L 1552.527 1882.483 Q 1546.11 1879.92 1538.528 1878.232 L 1538.528 1878.232 L 1538.528 1878.232 Q 1530.946 1876.544 1525.113 1876.544 L 1525.113 1876.544 L 1525.113 1876.544 Q 1486.15 1876.544 1486.15 1926.153 L 1486.15 1926.153 L 1486.15 1926.153 Q 1486.15 1949.676 1495.657 1962.253 L 1495.657 1962.253 L 1495.657 1962.253 Q 1505.165 1974.83 1523.829 1974.83 L 1523.829 1974.83 L 1523.829 1974.83 Q 1539.811 1974.83 1556.61 1967.959 L 1556.61 1967.959 L 1556.61 1985.078 L 1556.61 1985.078 Q 1543.778 1991.716 1524.297 1991.716 Z " fill="rgb(42,36,33)"/><path d=" M 1325.167 1861.754 L 1344.764 1861.754 L 1344.764 1944.552 L 1344.764 1944.552 Q 1344.764 1960.157 1351.88 1967.843 L 1351.88 1967.843 L 1351.88 1967.843 Q 1358.997 1975.529 1374.161 1975.529 L 1374.161 1975.529 L 1374.161 1975.529 Q 1394.227 1975.529 1403.5 1964.582 L 1403.5 1964.582 L 1403.5 1964.582 Q 1412.774 1953.636 1412.774 1928.831 L 1412.774 1928.831 L 1412.774 1861.754 L 1432.14 1861.754 L 1432.14 1989.387 L 1416.158 1989.387 L 1413.358 1972.268 L 1412.308 1972.268 L 1412.308 1972.268 Q 1406.358 1981.701 1395.801 1986.709 L 1395.801 1986.709 L 1395.801 1986.709 Q 1385.244 1991.716 1371.712 1991.716 L 1371.712 1991.716 L 1371.712 1991.716 Q 1348.381 1991.716 1336.774 1980.653 L 1336.774 1980.653 L 1336.774 1980.653 Q 1325.167 1969.59 1325.167 1945.251 L 1325.167 1945.251 L 1325.167 1861.754 Z " fill="rgb(42,36,33)"/><path d=" M 1239.658 1859.658 L 1239.658 1859.658 L 1239.658 1859.658 Q 1264.856 1859.658 1278.797 1876.835 L 1278.797 1876.835 L 1278.797 1876.835 Q 1292.736 1894.011 1292.736 1925.454 L 1292.736 1925.454 L 1292.736 1925.454 Q 1292.736 1956.896 1278.68 1974.306 L 1278.68 1974.306 L 1278.68 1974.306 Q 1264.623 1991.716 1239.658 1991.716 L 1239.658 1991.716 L 1239.658 1991.716 Q 1227.177 1991.716 1216.853 1987.116 L 1216.853 1987.116 L 1216.853 1987.116 Q 1206.529 1982.516 1199.529 1972.967 L 1199.529 1972.967 L 1198.129 1972.967 L 1194.047 1989.387 L 1180.165 1989.387 L 1180.165 1808.185 L 1199.529 1808.185 L 1199.529 1852.204 L 1199.529 1852.204 Q 1199.529 1866.994 1198.597 1878.756 L 1198.597 1878.756 L 1199.529 1878.756 L 1199.529 1878.756 Q 1213.061 1859.658 1239.658 1859.658 Z  M 1236.86 1875.845 L 1236.86 1875.845 L 1236.86 1875.845 Q 1217.028 1875.845 1208.278 1887.199 L 1208.278 1887.199 L 1208.278 1887.199 Q 1199.529 1898.553 1199.529 1925.454 L 1199.529 1925.454 L 1199.529 1925.454 Q 1199.529 1952.354 1208.512 1963.942 L 1208.512 1963.942 L 1208.512 1963.942 Q 1217.494 1975.529 1237.326 1975.529 L 1237.326 1975.529 L 1237.326 1975.529 Q 1255.174 1975.529 1263.923 1962.544 L 1263.923 1962.544 L 1263.923 1962.544 Q 1272.672 1949.56 1272.672 1925.221 L 1272.672 1925.221 L 1272.672 1925.221 Q 1272.672 1900.3 1263.923 1888.072 L 1263.923 1888.072 L 1263.923 1888.072 Q 1255.174 1875.845 1236.86 1875.845 Z " fill-rule="evenodd" fill="rgb(42,36,33)"/><path d=" M 1140.269 1989.387 L 1120.904 1989.387 L 1120.904 1906.355 L 1120.904 1906.355 Q 1120.904 1891.1 1114.372 1883.472 L 1114.372 1883.472 L 1114.372 1883.472 Q 1107.838 1875.845 1094.073 1875.845 L 1094.073 1875.845 L 1094.073 1875.845 Q 1075.992 1875.845 1067.36 1886.209 L 1067.36 1886.209 L 1067.36 1886.209 Q 1058.727 1896.574 1058.727 1918.117 L 1058.727 1918.117 L 1058.727 1989.387 L 1039.362 1989.387 L 1039.362 1906.355 L 1039.362 1906.355 Q 1039.362 1891.1 1032.83 1883.472 L 1032.83 1883.472 L 1032.83 1883.472 Q 1026.297 1875.845 1012.415 1875.845 L 1012.415 1875.845 L 1012.415 1875.845 Q 994.216 1875.845 985.76 1886.733 L 985.76 1886.733 L 985.76 1886.733 Q 977.302 1897.621 977.302 1922.426 L 977.302 1922.426 L 977.302 1989.387 L 957.937 1989.387 L 957.937 1861.754 L 973.686 1861.754 L 976.836 1879.222 L 977.768 1879.222 L 977.768 1879.222 Q 983.251 1869.905 993.226 1864.665 L 993.226 1864.665 L 993.226 1864.665 Q 1003.2 1859.425 1015.565 1859.425 L 1015.565 1859.425 L 1015.565 1859.425 Q 1045.545 1859.425 1054.76 1881.085 L 1054.76 1881.085 L 1055.694 1881.085 L 1055.694 1881.085 Q 1061.41 1871.07 1072.259 1865.247 L 1072.259 1865.247 L 1072.259 1865.247 Q 1083.107 1859.425 1096.99 1859.425 L 1096.99 1859.425 L 1096.99 1859.425 Q 1118.688 1859.425 1129.478 1870.546 L 1129.478 1870.546 L 1129.478 1870.546 Q 1140.269 1881.667 1140.269 1906.123 L 1140.269 1906.123 L 1140.269 1989.387 Z " fill="rgb(42,36,33)"/><path d=" M 918.041 1989.387 L 903.692 1989.387 L 899.843 1971.22 L 898.91 1971.22 L 898.91 1971.22 Q 889.345 1983.215 879.837 1987.465 L 879.837 1987.465 L 879.837 1987.465 Q 870.33 1991.716 856.097 1991.716 L 856.097 1991.716 L 856.097 1991.716 Q 837.083 1991.716 826.292 1981.934 L 826.292 1981.934 L 826.292 1981.934 Q 815.502 1972.152 815.502 1954.101 L 815.502 1954.101 L 815.502 1954.101 Q 815.502 1915.439 877.446 1913.576 L 877.446 1913.576 L 899.143 1912.877 L 899.143 1904.958 L 899.143 1904.958 Q 899.143 1889.935 892.669 1882.774 L 892.669 1882.774 L 892.669 1882.774 Q 886.194 1875.612 871.963 1875.612 L 871.963 1875.612 L 871.963 1875.612 Q 855.981 1875.612 835.799 1885.394 L 835.799 1885.394 L 829.85 1870.604 L 829.85 1870.604 Q 839.3 1865.48 850.556 1862.569 L 850.556 1862.569 L 850.556 1862.569 Q 861.814 1859.658 873.13 1859.658 L 873.13 1859.658 L 873.13 1859.658 Q 895.993 1859.658 907.018 1869.789 L 907.018 1869.789 L 907.018 1869.789 Q 918.041 1879.92 918.041 1902.279 L 918.041 1902.279 L 918.041 1989.387 Z  M 859.947 1975.762 L 859.947 1975.762 L 859.947 1975.762 Q 878.029 1975.762 888.353 1965.863 L 888.353 1965.863 L 888.353 1965.863 Q 898.677 1955.965 898.677 1938.147 L 898.677 1938.147 L 898.677 1926.619 L 879.312 1927.434 L 879.312 1927.434 Q 856.214 1928.249 846.007 1934.596 L 846.007 1934.596 L 846.007 1934.596 Q 835.799 1940.942 835.799 1954.334 L 835.799 1954.334 L 835.799 1954.334 Q 835.799 1964.815 842.158 1970.289 L 842.158 1970.289 L 842.158 1970.289 Q 848.515 1975.762 859.947 1975.762 Z " fill-rule="evenodd" fill="rgb(42,36,33)"/><path d=" M 785.288 1989.387 L 765.923 1989.387 L 765.923 1906.821 L 765.923 1906.821 Q 765.923 1891.217 758.807 1883.531 L 758.807 1883.531 L 758.807 1883.531 Q 751.692 1875.845 736.526 1875.845 L 736.526 1875.845 L 736.526 1875.845 Q 716.462 1875.845 707.129 1886.675 L 707.129 1886.675 L 707.129 1886.675 Q 697.797 1897.505 697.797 1922.426 L 697.797 1922.426 L 697.797 1989.387 L 678.432 1989.387 L 678.432 1861.754 L 694.181 1861.754 L 697.331 1879.222 L 698.263 1879.222 L 698.263 1879.222 Q 704.212 1869.789 714.945 1864.607 L 714.945 1864.607 L 714.945 1864.607 Q 725.677 1859.425 738.86 1859.425 L 738.86 1859.425 L 738.86 1859.425 Q 761.958 1859.425 773.622 1870.546 L 773.622 1870.546 L 773.622 1870.546 Q 785.288 1881.667 785.288 1906.123 L 785.288 1906.123 L 785.288 1989.387 Z " fill="rgb(42,36,33)"/><path d=" M 639.237 1859.425 L 639.237 1859.425 L 639.237 1859.425 Q 647.752 1859.425 654.518 1860.822 L 654.518 1860.822 L 651.835 1878.756 L 651.835 1878.756 Q 643.903 1877.009 637.837 1877.009 L 637.837 1877.009 L 637.837 1877.009 Q 622.321 1877.009 611.298 1889.586 L 611.298 1889.586 L 611.298 1889.586 Q 600.273 1902.163 600.273 1920.912 L 600.273 1920.912 L 600.273 1989.387 L 580.909 1989.387 L 580.909 1861.754 L 596.891 1861.754 L 599.107 1885.394 L 600.04 1885.394 L 600.04 1885.394 Q 607.156 1872.933 617.189 1866.179 L 617.189 1866.179 L 617.189 1866.179 Q 627.22 1859.425 639.237 1859.425 Z " fill="rgb(42,36,33)"/><path d=" M 500.884 1991.716 L 500.884 1991.716 L 500.884 1991.716 Q 472.537 1991.716 456.147 1974.481 L 456.147 1974.481 L 456.147 1974.481 Q 439.757 1957.246 439.757 1926.619 L 439.757 1926.619 L 439.757 1926.619 Q 439.757 1895.758 454.98 1877.591 L 454.98 1877.591 L 454.98 1877.591 Q 470.203 1859.425 495.868 1859.425 L 495.868 1859.425 L 495.868 1859.425 Q 519.898 1859.425 533.897 1875.204 L 533.897 1875.204 L 533.897 1875.204 Q 547.896 1890.984 547.896 1916.836 L 547.896 1916.836 L 547.896 1929.064 L 459.821 1929.064 L 459.821 1929.064 Q 460.405 1951.539 471.195 1963.185 L 471.195 1963.185 L 471.195 1963.185 Q 481.985 1974.83 501.583 1974.83 L 501.583 1974.83 L 501.583 1974.83 Q 522.231 1974.83 542.413 1966.213 L 542.413 1966.213 L 542.413 1983.448 L 542.413 1983.448 Q 532.147 1987.873 522.99 1989.794 L 522.99 1989.794 L 522.99 1989.794 Q 513.832 1991.716 500.884 1991.716 Z  M 495.635 1875.612 L 495.635 1875.612 L 495.635 1875.612 Q 480.236 1875.612 471.078 1885.627 L 471.078 1885.627 L 471.078 1885.627 Q 461.921 1895.642 460.288 1913.343 L 460.288 1913.343 L 527.131 1913.343 L 527.131 1913.343 Q 527.131 1895.059 518.965 1885.336 L 518.965 1885.336 L 518.965 1885.336 Q 510.799 1875.612 495.635 1875.612 Z " fill-rule="evenodd" fill="rgb(42,36,33)"/><path d=" M 414.092 1868.741 L 414.092 1868.741 L 414.092 1868.741 Q 414.092 1894.594 396.419 1908.51 L 396.419 1908.51 L 396.419 1908.51 Q 378.745 1922.426 345.849 1922.426 L 345.849 1922.426 L 325.785 1922.426 L 325.785 1989.387 L 305.953 1989.387 L 305.953 1819.132 L 350.165 1819.132 L 350.165 1819.132 Q 414.092 1819.132 414.092 1868.741 Z  M 325.785 1836.25 L 325.785 1905.424 L 343.633 1905.424 L 343.633 1905.424 Q 369.996 1905.424 381.778 1896.923 L 381.778 1896.923 L 381.778 1896.923 Q 393.562 1888.422 393.562 1869.673 L 393.562 1869.673 L 393.562 1869.673 Q 393.562 1852.787 382.479 1844.519 L 382.479 1844.519 L 382.479 1844.519 Q 371.396 1836.25 347.948 1836.25 L 347.948 1836.25 L 325.785 1836.25 Z " fill-rule="evenodd" fill="rgb(42,36,33)"/><path d=" M 1115.61 224.349 C 1115.61 236.555 1105.747 246.397 1093.541 246.397 L 910.914 246.397 C 898.729 246.397 888.846 236.555 888.846 224.349 L 888.846 41.681 C 888.846 29.536 898.729 19.633 910.914 19.633 L 1093.541 19.633 C 1105.747 19.633 1115.61 29.536 1115.61 41.681 L 1115.61 224.349 Z " fill="rgb(53,151,47)"/><path d=" M 1387.759 224.349 C 1387.759 236.555 1377.857 246.397 1365.69 246.397 L 1183.022 246.397 C 1170.877 246.397 1160.954 236.555 1160.954 224.349 L 1160.954 41.681 C 1160.954 29.536 1170.877 19.633 1183.022 19.633 L 1365.69 19.633 C 1377.857 19.633 1387.759 29.536 1387.759 41.681 L 1387.759 224.349 Z " fill="rgb(53,151,47)"/><path d=" M 1387.759 768.586 C 1387.759 780.772 1377.857 790.654 1365.69 790.654 L 1183.022 790.654 C 1170.877 790.654 1160.954 780.772 1160.954 768.586 L 1160.954 585.979 C 1160.954 573.752 1170.877 563.85 1183.022 563.85 L 1365.69 563.85 C 1377.857 563.85 1387.759 573.752 1387.759 585.979 L 1387.759 768.586 Z " fill="rgb(53,151,47)"/><path d=" M 843.54 496.28 C 843.54 508.486 833.637 518.368 821.431 518.368 L 638.804 518.368 C 626.618 518.368 616.736 508.486 616.736 496.28 L 616.736 313.652 C 616.736 301.446 626.618 291.584 638.804 291.584 L 821.431 291.584 C 833.637 291.584 843.54 301.446 843.54 313.652 L 843.54 496.28 Z " fill="rgb(53,151,47)"/><path d=" M 1115.61 496.28 C 1115.61 508.486 1105.747 518.368 1093.541 518.368 L 910.914 518.368 C 898.729 518.368 888.846 508.486 888.846 496.28 L 888.846 313.652 C 888.846 301.446 898.729 291.584 910.914 291.584 L 1093.541 291.584 C 1105.747 291.584 1115.61 301.446 1115.61 313.652 L 1115.61 496.28 Z " fill="rgb(53,151,47)"/><path d=" M 843.54 768.586 C 843.54 780.772 833.637 790.654 821.431 790.654 L 638.804 790.654 C 626.618 790.654 616.736 780.772 616.736 768.586 L 616.736 585.979 C 616.736 573.752 626.618 563.85 638.804 563.85 L 821.431 563.85 C 833.637 563.85 843.54 573.752 843.54 585.979 L 843.54 768.586 Z " fill="rgb(53,151,47)"/><path d=" M 1115.61 768.586 C 1115.61 780.772 1105.747 790.654 1093.541 790.654 L 910.914 790.654 C 898.729 790.654 888.846 780.772 888.846 768.586 L 888.846 585.979 C 888.846 573.752 898.729 563.85 910.914 563.85 L 1093.541 563.85 C 1105.747 563.85 1115.61 573.752 1115.61 585.979 L 1115.61 768.586 Z " fill="rgb(53,151,47)"/><path d=" M 843.54 1040.973 C 843.54 1053.179 833.637 1063.061 821.431 1063.061 L 638.804 1063.061 C 626.618 1063.061 616.736 1053.179 616.736 1040.973 L 616.736 858.366 C 616.736 846.18 626.618 836.278 638.804 836.278 L 821.431 836.278 C 833.637 836.278 843.54 846.18 843.54 858.366 L 843.54 1040.973 Z " fill="rgb(53,151,47)"/><path d=" M 1115.61 1040.973 C 1115.61 1053.179 1105.747 1063.061 1093.541 1063.061 L 910.914 1063.061 C 898.729 1063.061 888.846 1053.179 888.846 1040.973 L 888.846 858.366 C 888.846 846.18 898.729 836.278 910.914 836.278 L 1093.541 836.278 C 1105.747 836.278 1115.61 846.18 1115.61 858.366 L 1115.61 1040.973 Z " fill="rgb(53,151,47)"/><path d=" M 854.829 133.033 C 854.829 201.905 799.012 257.742 730.139 257.742 C 661.268 257.742 605.451 201.905 605.451 133.033 C 605.451 64.121 661.268 8.284 730.139 8.284 C 799.012 8.284 854.829 64.121 854.829 133.033 Z " fill="rgb(200,11,15)"/><path d=" M 1678.122 1718.245 L 1538.535 1718.245 L 1538.535 1492.637 L 1586.455 1492.637 L 1586.455 1678.74 L 1678.122 1678.74 L 1678.122 1718.245 Z " fill="rgb(42,36,33)"/><path d=" M 1510.053 1718.245 L 1458.422 1718.245 L 1442.037 1664.544 L 1359.645 1664.544 L 1343.258 1718.245 L 1291.629 1718.245 L 1371.392 1491.711 L 1429.98 1491.711 L 1510.053 1718.245 Z  M 1371.702 1624.422 L 1430.598 1624.422 L 1430.598 1624.422 Q 1407.874 1551.431 1405.015 1541.863 L 1405.015 1541.863 L 1405.015 1541.863 Q 1402.154 1532.296 1400.917 1526.741 L 1400.917 1526.741 L 1400.917 1526.741 Q 1395.817 1546.493 1371.702 1624.422 L 1371.702 1624.422 Z " fill-rule="evenodd" fill="rgb(42,36,33)"/><path d=" M 1158.919 1531.833 L 1158.919 1592.787 L 1174.378 1592.787 L 1174.378 1592.787 Q 1197.102 1592.787 1207.922 1585.226 L 1207.922 1585.226 L 1207.922 1585.226 Q 1218.743 1577.664 1218.743 1561.461 L 1218.743 1561.461 L 1218.743 1561.461 Q 1218.743 1545.413 1207.69 1538.623 L 1207.69 1538.623 L 1207.69 1538.623 Q 1196.638 1531.833 1173.45 1531.833 L 1173.45 1531.833 L 1158.919 1531.833 Z  M 1184.426 1631.674 L 1158.919 1631.674 L 1158.919 1718.245 L 1110.999 1718.245 L 1110.999 1492.637 L 1176.851 1492.637 L 1176.851 1492.637 Q 1222.917 1492.637 1245.021 1509.38 L 1245.021 1509.38 L 1245.021 1509.38 Q 1267.127 1526.123 1267.127 1560.227 L 1267.127 1560.227 L 1267.127 1560.227 Q 1267.127 1580.133 1256.152 1595.642 L 1256.152 1595.642 L 1256.152 1595.642 Q 1245.177 1611.151 1225.08 1619.947 L 1225.08 1619.947 L 1225.08 1619.947 Q 1276.093 1696.024 1291.551 1718.245 L 1291.551 1718.245 L 1238.374 1718.245 L 1184.426 1631.674 Z " fill-rule="evenodd" fill="rgb(42,36,33)"/><path d=" M 1063.852 1678.74 L 1063.852 1718.245 L 933.693 1718.245 L 933.693 1492.637 L 1063.852 1492.637 L 1063.852 1531.833 L 981.614 1531.833 L 981.614 1581.368 L 1058.133 1581.368 L 1058.133 1620.564 L 981.614 1620.564 L 981.614 1678.74 L 1063.852 1678.74 Z " fill="rgb(42,36,33)"/><path d=" M 886.856 1603.28 L 886.856 1603.28 L 886.856 1603.28 Q 886.856 1658.988 855.088 1688.616 L 855.088 1688.616 L 855.088 1688.616 Q 823.322 1718.245 763.344 1718.245 L 763.344 1718.245 L 699.348 1718.245 L 699.348 1492.637 L 770.301 1492.637 L 770.301 1492.637 Q 825.641 1492.637 856.247 1521.802 L 856.247 1521.802 L 856.247 1521.802 Q 886.856 1550.968 886.856 1603.28 Z  M 837.08 1604.515 L 837.08 1604.515 L 837.08 1604.515 Q 837.08 1531.833 772.774 1531.833 L 772.774 1531.833 L 747.267 1531.833 L 747.267 1678.74 L 767.828 1678.74 L 767.828 1678.74 Q 837.08 1678.74 837.08 1604.515 Z " fill-rule="evenodd" fill="rgb(42,36,33)"/><path d=" M 652.2 1678.74 L 652.2 1718.245 L 522.041 1718.245 L 522.041 1492.637 L 652.2 1492.637 L 652.2 1531.833 L 569.962 1531.833 L 569.962 1581.368 L 646.481 1581.368 L 646.481 1620.564 L 569.962 1620.564 L 569.962 1678.74 L 652.2 1678.74 Z " fill="rgb(42,36,33)"/><path d=" M 395.401 1629.051 L 395.401 1718.245 L 348.253 1718.245 L 348.253 1492.637 L 477.793 1492.637 L 477.793 1531.833 L 395.401 1531.833 L 395.401 1590.009 L 472.073 1590.009 L 472.073 1629.051 L 395.401 1629.051 Z " fill="rgb(42,36,33)"/><path d=" M 1818 1334.208 L 1818 1334.208 L 1818 1334.208 Q 1818 1390.224 1790.175 1420.316 L 1790.175 1420.316 L 1790.175 1420.316 Q 1762.35 1450.407 1710.411 1450.407 L 1710.411 1450.407 L 1710.411 1450.407 Q 1658.472 1450.407 1630.646 1420.316 L 1630.646 1420.316 L 1630.646 1420.316 Q 1602.822 1390.224 1602.822 1333.899 L 1602.822 1333.899 L 1602.822 1333.899 Q 1602.822 1277.574 1630.724 1247.869 L 1630.724 1247.869 L 1630.724 1247.869 Q 1658.626 1218.163 1710.719 1218.163 L 1710.719 1218.163 L 1710.719 1218.163 Q 1762.814 1218.163 1790.406 1248.101 L 1790.406 1248.101 L 1790.406 1248.101 Q 1818 1278.037 1818 1334.208 Z  M 1653.06 1334.208 L 1653.06 1334.208 L 1653.06 1334.208 Q 1653.06 1372.015 1667.436 1391.15 L 1667.436 1391.15 L 1667.436 1391.15 Q 1681.813 1410.285 1710.411 1410.285 L 1710.411 1410.285 L 1710.411 1410.285 Q 1767.76 1410.285 1767.76 1334.208 L 1767.76 1334.208 L 1767.76 1334.208 Q 1767.76 1257.976 1710.719 1257.976 L 1710.719 1257.976 L 1710.719 1257.976 Q 1682.122 1257.976 1667.592 1277.189 L 1667.592 1277.189 L 1667.592 1277.189 Q 1653.06 1296.401 1653.06 1334.208 Z " fill-rule="evenodd" fill="rgb(42,36,33)"/><path d=" M 1516.7 1261.526 L 1516.7 1447.32 L 1468.779 1447.32 L 1468.779 1261.526 L 1407.41 1261.526 L 1407.41 1221.713 L 1578.069 1221.713 L 1578.069 1261.526 L 1516.7 1261.526 Z " fill="rgb(42,36,33)"/><path d=" M 1326.371 1221.713 L 1374.137 1221.713 L 1374.137 1367.694 L 1374.137 1367.694 Q 1374.137 1392.693 1362.929 1411.52 L 1362.929 1411.52 L 1362.929 1411.52 Q 1351.722 1430.346 1330.545 1440.376 L 1330.545 1440.376 L 1330.545 1440.376 Q 1309.367 1450.407 1280.46 1450.407 L 1280.46 1450.407 L 1280.46 1450.407 Q 1236.868 1450.407 1212.753 1428.109 L 1212.753 1428.109 L 1212.753 1428.109 Q 1188.638 1405.81 1188.638 1367.077 L 1188.638 1367.077 L 1188.638 1221.713 L 1236.404 1221.713 L 1236.404 1359.824 L 1236.404 1359.824 Q 1236.404 1385.903 1246.916 1398.094 L 1246.916 1398.094 L 1246.916 1398.094 Q 1257.427 1410.285 1281.697 1410.285 L 1281.697 1410.285 L 1281.697 1410.285 Q 1305.193 1410.285 1315.782 1398.017 L 1315.782 1398.017 L 1315.782 1398.017 Q 1326.371 1385.749 1326.371 1359.516 L 1326.371 1359.516 L 1326.371 1221.713 Z " fill="rgb(42,36,33)"/><path d=" M 1093.977 1261.526 L 1093.977 1447.32 L 1046.056 1447.32 L 1046.056 1261.526 L 984.687 1261.526 L 984.687 1221.713 L 1155.345 1221.713 L 1155.345 1261.526 L 1093.977 1261.526 Z " fill="rgb(42,36,33)"/><path d=" M 949.906 1447.32 L 901.985 1447.32 L 901.985 1221.713 L 949.906 1221.713 L 949.906 1447.32 Z " fill="rgb(42,36,33)"/><path d=" M 805.835 1261.526 L 805.835 1447.32 L 757.914 1447.32 L 757.914 1261.526 L 696.545 1261.526 L 696.545 1221.713 L 867.204 1221.713 L 867.204 1261.526 L 805.835 1261.526 Z " fill="rgb(42,36,33)"/><path d=" M 677.647 1384.669 L 677.647 1384.669 L 677.647 1384.669 Q 677.647 1415.223 655.62 1432.815 L 655.62 1432.815 L 655.62 1432.815 Q 633.592 1450.407 594.328 1450.407 L 594.328 1450.407 L 594.328 1450.407 Q 558.156 1450.407 530.331 1436.827 L 530.331 1436.827 L 530.331 1392.385 L 530.331 1392.385 Q 553.21 1402.569 569.054 1406.736 L 569.054 1406.736 L 569.054 1406.736 Q 584.899 1410.902 598.038 1410.902 L 598.038 1410.902 L 598.038 1410.902 Q 613.805 1410.902 622.23 1404.884 L 622.23 1404.884 L 622.23 1404.884 Q 630.655 1398.866 630.655 1386.983 L 630.655 1386.983 L 630.655 1386.983 Q 630.655 1380.348 626.945 1375.178 L 626.945 1375.178 L 626.945 1375.178 Q 623.235 1370.009 616.046 1365.225 L 616.046 1365.225 L 616.046 1365.225 Q 608.859 1360.441 586.753 1349.948 L 586.753 1349.948 L 586.753 1349.948 Q 566.04 1340.226 555.683 1331.276 L 555.683 1331.276 L 555.683 1331.276 Q 545.325 1322.326 539.142 1310.443 L 539.142 1310.443 L 539.142 1310.443 Q 532.959 1298.561 532.959 1282.667 L 532.959 1282.667 L 532.959 1282.667 Q 532.959 1252.73 553.287 1235.601 L 553.287 1235.601 L 553.287 1235.601 Q 573.615 1218.472 609.477 1218.472 L 609.477 1218.472 L 609.477 1218.472 Q 627.099 1218.472 643.099 1222.638 L 643.099 1222.638 L 643.099 1222.638 Q 659.098 1226.805 676.566 1234.366 L 676.566 1234.366 L 661.108 1271.556 L 661.108 1271.556 Q 643.022 1264.149 631.196 1261.217 L 631.196 1261.217 L 631.196 1261.217 Q 619.371 1258.285 607.932 1258.285 L 607.932 1258.285 L 607.932 1258.285 Q 594.328 1258.285 587.063 1264.612 L 587.063 1264.612 L 587.063 1264.612 Q 579.798 1270.939 579.798 1281.124 L 579.798 1281.124 L 579.798 1281.124 Q 579.798 1287.451 582.735 1292.157 L 582.735 1292.157 L 582.735 1292.157 Q 585.671 1296.864 592.087 1301.262 L 592.087 1301.262 L 592.087 1301.262 Q 598.502 1305.66 622.462 1317.079 L 622.462 1317.079 L 622.462 1317.079 Q 654.151 1332.202 665.9 1347.402 L 665.9 1347.402 L 665.9 1347.402 Q 677.647 1362.602 677.647 1384.669 Z " fill="rgb(42,36,33)"/><path d=" M 487.319 1221.713 L 487.319 1447.32 L 426.413 1447.32 L 328.1 1276.649 L 326.708 1276.649 L 326.708 1276.649 Q 329.645 1321.863 329.645 1341.152 L 329.645 1341.152 L 329.645 1447.32 L 286.826 1447.32 L 286.826 1221.713 L 347.268 1221.713 L 445.427 1390.687 L 446.509 1390.687 L 446.509 1390.687 Q 444.191 1346.708 444.191 1328.498 L 444.191 1328.498 L 444.191 1221.713 L 487.319 1221.713 Z " fill="rgb(42,36,33)"/><path d=" M 229.921 1447.32 L 182 1447.32 L 182 1221.713 L 229.921 1221.713 L 229.921 1447.32 Z " fill="rgb(42,36,33)"/></g></svg>